<?xml version="1.0" encoding="UTF-8"?><svg id="_Слой_1" xmlns="http://www.w3.org/2000/svg" viewBox="0 0 120 120"><defs><style>.cls-1{fill:#3a393e;}.cls-1,.cls-2,.cls-3,.cls-4,.cls-5,.cls-6,.cls-7,.cls-8,.cls-9,.cls-10,.cls-11,.cls-12{stroke-width:0px;}.cls-2{fill:#a9827f;}.cls-3{fill:#6c4949;}.cls-4{fill:#555459;}.cls-5{fill:#fff;}.cls-6{fill:#ea88a0;}.cls-7{fill:#3a3034;}.cls-8{fill:#eae0cc;}.cls-9{fill:#434147;}.cls-10{fill:#452728;}.cls-11{fill:#030405;}.cls-12{fill:#bcbabd;}</style></defs><path class="cls-6" d="m24.83,69.82v-2.18h-2.07v-2.18h-2.07v-6.55h-2.07v-2.18h-2.07v-2.18h-8.28v2.18h-4.14v8.73h-2.07v6.55H0v2.18h2.07v2.18h2.07v4.36h16.55v-4.36h6.21v-6.55h-2.07Zm-20.69,2.18v-4.36h4.14v-6.55h2.07v13.09h-6.21v-2.18Zm14.48,2.18h-6.21v-13.09h4.14v6.55h2.07v4.36h2.07v2.18h-2.07Z"/><rect class="cls-9" x="64.14" y="43.64" width="2.07" height="2.18"/><rect class="cls-1" x="64.14" y="41.45" width="2.07" height="2.18"/><rect class="cls-4" x="55.86" y="41.45" width="2.07" height="2.18"/><rect class="cls-4" x="55.86" y="39.27" width="2.07" height="2.18"/><polygon class="cls-11" points="62.07 41.45 60 41.45 60 39.27 57.93 39.27 57.93 41.45 57.93 43.64 57.93 45.82 60 45.82 62.07 45.82 64.14 45.82 64.14 43.64 64.14 41.45 62.07 41.45"/><polygon class="cls-11" points="39.31 34.91 37.24 34.91 37.24 37.09 37.24 39.27 39.31 39.27 41.38 39.27 43.45 39.27 43.45 37.09 43.45 34.91 41.38 34.91 39.31 34.91"/><rect class="cls-1" x="35.17" y="34.91" width="2.07" height="2.18"/><rect class="cls-7" x="41.38" y="32.73" width="2.07" height="2.18"/><rect class="cls-7" x="39.31" y="32.73" width="2.07" height="2.18"/><rect class="cls-7" x="37.24" y="32.73" width="2.07" height="2.18"/><rect class="cls-12" x="35.17" y="32.73" width="2.07" height="2.18"/><rect class="cls-5" x="53.79" y="39.27" width="2.07" height="8.73"/><polygon class="cls-3" points="45.52 104.73 45.52 102.55 45.52 100.36 43.45 100.36 43.45 98.18 41.38 98.18 41.38 100.36 41.38 102.55 43.45 102.55 43.45 104.73 43.45 106.91 41.38 106.91 41.38 109.09 41.38 111.27 39.31 111.27 37.24 111.27 35.17 111.27 33.1 111.27 33.1 113.45 33.1 115.64 35.17 115.64 37.24 115.64 39.31 115.64 41.38 115.64 43.45 115.64 45.52 115.64 45.52 113.45 45.52 111.27 47.59 111.27 49.66 111.27 49.66 109.09 49.66 106.91 49.66 104.73 47.59 104.73 45.52 104.73"/><polygon class="cls-3" points="99.31 91.64 97.24 91.64 95.17 91.64 93.1 91.64 91.03 91.64 88.97 91.64 86.9 91.64 84.83 91.64 84.83 93.82 86.9 93.82 88.97 93.82 91.03 93.82 93.1 93.82 95.17 93.82 97.24 93.82 99.31 93.82 101.38 93.82 103.45 93.82 103.45 91.64 101.38 91.64 99.31 91.64"/><polygon class="cls-3" points="35.17 93.82 35.17 91.64 33.1 91.64 31.03 91.64 31.03 93.82 33.1 93.82 35.17 93.82"/><polygon class="cls-3" points="111.72 82.91 109.66 82.91 109.66 85.09 107.59 85.09 107.59 87.27 107.59 89.45 105.52 89.45 103.45 89.45 103.45 91.64 105.52 91.64 107.59 91.64 109.66 91.64 109.66 89.45 111.72 89.45 111.72 87.27 111.72 85.09 113.79 85.09 115.86 85.09 115.86 82.91 113.79 82.91 111.72 82.91"/><polygon class="cls-3" points="93.1 80.73 95.17 80.73 95.17 78.55 95.17 76.36 93.1 76.36 91.03 76.36 88.97 76.36 88.97 78.55 88.97 80.73 91.03 80.73 93.1 80.73"/><polygon class="cls-3" points="68.28 78.55 68.28 80.73 70.34 80.73 70.34 78.55 70.34 76.36 68.28 76.36 68.28 78.55"/><polygon class="cls-3" points="66.21 74.18 64.14 74.18 62.07 74.18 60 74.18 57.93 74.18 55.86 74.18 53.79 74.18 51.72 74.18 49.66 74.18 47.59 74.18 45.52 74.18 43.45 74.18 41.38 74.18 41.38 76.36 39.31 76.36 37.24 76.36 35.17 76.36 35.17 78.55 35.17 80.73 33.1 80.73 31.03 80.73 28.97 80.73 26.9 80.73 24.83 80.73 22.76 80.73 20.69 80.73 18.62 80.73 16.55 80.73 14.48 80.73 12.41 80.73 10.34 80.73 8.28 80.73 8.28 82.91 10.34 82.91 12.41 82.91 14.48 82.91 16.55 82.91 18.62 82.91 20.69 82.91 22.76 82.91 24.83 82.91 24.83 85.09 24.83 87.27 22.76 87.27 20.69 87.27 18.62 87.27 18.62 89.45 16.55 89.45 16.55 91.64 16.55 93.82 16.55 96 16.55 98.18 16.55 100.36 16.55 102.55 18.62 102.55 18.62 104.73 18.62 106.91 18.62 109.09 20.69 109.09 22.76 109.09 24.83 109.09 24.83 111.27 26.9 111.27 28.97 111.27 31.03 111.27 31.03 109.09 28.97 109.09 26.9 109.09 26.9 106.91 24.83 106.91 22.76 106.91 20.69 106.91 20.69 104.73 20.69 102.55 20.69 100.36 18.62 100.36 18.62 98.18 18.62 96 18.62 93.82 18.62 91.64 20.69 91.64 20.69 89.45 22.76 89.45 24.83 89.45 24.83 91.64 26.9 91.64 28.97 91.64 28.97 89.45 26.9 89.45 26.9 87.27 26.9 85.09 26.9 82.91 28.97 82.91 31.03 82.91 33.1 82.91 35.17 82.91 37.24 82.91 37.24 80.73 39.31 80.73 41.38 80.73 43.45 80.73 43.45 78.55 43.45 76.36 45.52 76.36 47.59 76.36 49.66 76.36 51.72 76.36 53.79 76.36 55.86 76.36 57.93 76.36 60 76.36 62.07 76.36 64.14 76.36 66.21 76.36 68.28 76.36 68.28 74.18 66.21 74.18"/><rect class="cls-3" x="99.31" y="72" width="2.07" height="2.18"/><polygon class="cls-3" points="16.55 74.18 18.62 74.18 20.69 74.18 20.69 72 18.62 72 18.62 69.82 16.55 69.82 16.55 67.64 16.55 65.45 16.55 63.27 14.48 63.27 14.48 65.45 12.41 65.45 12.41 67.64 12.41 69.82 12.41 72 12.41 74.18 14.48 74.18 16.55 74.18"/><polygon class="cls-3" points="10.34 74.18 10.34 72 10.34 69.82 10.34 67.64 10.34 65.45 10.34 63.27 8.28 63.27 8.28 65.45 8.28 67.64 8.28 69.82 6.21 69.82 4.14 69.82 4.14 72 4.14 74.18 6.21 74.18 8.28 74.18 10.34 74.18"/><polygon class="cls-3" points="117.93 69.82 117.93 67.64 117.93 65.45 117.93 63.27 115.86 63.27 113.79 63.27 111.72 63.27 109.66 63.27 109.66 65.45 107.59 65.45 105.52 65.45 103.45 65.45 103.45 67.64 103.45 69.82 105.52 69.82 107.59 69.82 109.66 69.82 111.72 69.82 111.72 72 111.72 74.18 113.79 74.18 115.86 74.18 115.86 76.36 115.86 78.55 115.86 80.73 115.86 82.91 117.93 82.91 117.93 80.73 117.93 78.55 117.93 76.36 120 76.36 120 74.18 120 72 120 69.82 117.93 69.82"/><rect class="cls-3" x="35.17" y="56.73" width="2.07" height="2.18"/><polygon class="cls-3" points="28.97 54.55 31.03 54.55 33.1 54.55 35.17 54.55 35.17 52.36 35.17 50.18 33.1 50.18 31.03 50.18 28.97 50.18 26.9 50.18 26.9 52.36 24.83 52.36 24.83 54.55 26.9 54.55 28.97 54.55"/><polygon class="cls-3" points="39.31 50.18 41.38 50.18 43.45 50.18 43.45 48 41.38 48 39.31 48 37.24 48 37.24 50.18 39.31 50.18"/><polygon class="cls-3" points="35.17 48 37.24 48 37.24 45.82 35.17 45.82 33.1 45.82 31.03 45.82 31.03 48 33.1 48 35.17 48"/><rect class="cls-3" x="55.86" y="43.64" width="2.07" height="2.18"/><polygon class="cls-3" points="91.03 39.27 91.03 37.09 91.03 34.91 91.03 32.73 91.03 30.55 91.03 28.36 88.97 28.36 88.97 30.55 88.97 32.73 88.97 34.91 88.97 37.09 88.97 39.27 88.97 41.45 91.03 41.45 91.03 39.27"/><polygon class="cls-3" points="66.21 39.27 64.14 39.27 62.07 39.27 60 39.27 60 41.45 62.07 41.45 64.14 41.45 66.21 41.45 68.28 41.45 70.34 41.45 70.34 39.27 68.28 39.27 66.21 39.27"/><polygon class="cls-3" points="41.38 32.73 43.45 32.73 45.52 32.73 45.52 30.55 43.45 30.55 41.38 30.55 39.31 30.55 37.24 30.55 37.24 32.73 39.31 32.73 41.38 32.73"/><rect class="cls-3" x="55.86" y="19.64" width="2.07" height="2.18"/><polygon class="cls-3" points="64.14 17.45 64.14 15.27 62.07 15.27 62.07 17.45 62.07 19.64 64.14 19.64 64.14 17.45"/><polygon class="cls-10" points="93.1 37.09 93.1 34.91 93.1 32.73 93.1 30.55 93.1 28.36 91.03 28.36 91.03 30.55 91.03 32.73 91.03 34.91 91.03 37.09 91.03 39.27 91.03 41.45 88.97 41.45 86.9 41.45 86.9 43.64 86.9 45.82 86.9 48 86.9 50.18 86.9 52.36 86.9 54.55 86.9 56.73 86.9 58.91 86.9 61.09 86.9 63.27 86.9 65.45 86.9 67.64 88.97 67.64 88.97 69.82 91.03 69.82 91.03 72 93.1 72 93.1 69.82 95.17 69.82 95.17 67.64 95.17 65.45 95.17 63.27 93.1 63.27 93.1 61.09 93.1 58.91 93.1 56.73 95.17 56.73 95.17 54.55 95.17 52.36 95.17 50.18 93.1 50.18 93.1 48 93.1 45.82 95.17 45.82 95.17 43.64 95.17 41.45 95.17 39.27 95.17 37.09 93.1 37.09"/><polygon class="cls-10" points="45.52 19.64 45.52 17.45 45.52 15.27 45.52 13.09 43.45 13.09 43.45 15.27 43.45 17.45 43.45 19.64 43.45 21.82 43.45 24 45.52 24 45.52 21.82 47.59 21.82 49.66 21.82 49.66 19.64 47.59 19.64 45.52 19.64"/><polygon class="cls-10" points="82.76 15.27 80.69 15.27 78.62 15.27 78.62 17.45 78.62 19.64 78.62 21.82 78.62 24 78.62 26.18 78.62 28.36 78.62 30.55 80.69 30.55 82.76 30.55 84.83 30.55 84.83 28.36 84.83 26.18 84.83 24 84.83 21.82 84.83 19.64 84.83 17.45 84.83 15.27 84.83 13.09 82.76 13.09 82.76 15.27"/><polygon class="cls-10" points="72.41 13.09 70.34 13.09 68.28 13.09 68.28 10.91 68.28 8.73 68.28 6.55 68.28 4.36 66.21 4.36 66.21 6.55 66.21 8.73 66.21 10.91 64.14 10.91 62.07 10.91 62.07 8.73 62.07 6.55 60 6.55 60 4.36 57.93 4.36 57.93 6.55 57.93 8.73 57.93 10.91 57.93 13.09 55.86 13.09 53.79 13.09 53.79 10.91 53.79 8.73 53.79 6.55 51.72 6.55 51.72 8.73 51.72 10.91 51.72 13.09 51.72 15.27 53.79 15.27 53.79 17.45 53.79 19.64 53.79 21.82 55.86 21.82 55.86 19.64 57.93 19.64 60 19.64 62.07 19.64 62.07 17.45 62.07 15.27 64.14 15.27 66.21 15.27 66.21 17.45 66.21 19.64 68.28 19.64 70.34 19.64 72.41 19.64 74.48 19.64 76.55 19.64 76.55 17.45 76.55 15.27 76.55 13.09 74.48 13.09 72.41 13.09"/><rect class="cls-10" x="41.38" y="10.91" width="2.07" height="2.18"/><polygon class="cls-2" points="18.62 87.27 20.69 87.27 22.76 87.27 24.83 87.27 24.83 85.09 22.76 85.09 20.69 85.09 18.62 85.09 18.62 87.27"/><path class="cls-2" d="m113.79,74.18h-2.07v-4.36h-10.34v4.36h-4.14v2.18h-2.07v4.36h-6.21v-4.36h4.14v-4.36h-2.07v-2.18h-2.07v-2.18h-2.07v-26.18h2.07v-13.09h4.14v-2.18h-4.14v-10.91h-2.07V0h-2.07v4.36h-2.07v2.18h-4.14v8.73h4.14v-2.18h2.07v17.45h-6.21v-15.27h-2.07v4.36h-10.34v-4.36h-2.07v4.36h-6.21v2.18h-4.14v-6.55h-2.07v-2.18h-2.07v-2.18h-4.14v-4.36h-2.07v-2.18h-6.21v8.73h4.14v-2.18h2.07v2.18h2.07v6.55h4.14v2.18h-4.14v2.18h-2.07v-10.91h-2.07v8.73h-4.14v8.73h8.28v2.18h-2.07v8.73h-10.34v4.36h4.14v2.18h6.21v2.18h-6.21v-2.18h-10.34v2.18h8.28v4.36h-10.34v-2.18h2.07v-2.18h-14.48v4.36h4.14v2.18h2.07v2.18h2.07v6.55h2.07v2.18h2.07v2.18h2.07v6.55h-6.21v4.36h14.48v-4.36h6.21v-2.18h8.28v-4.36h4.14v-4.36h2.07v-4.36h2.07v-2.18h2.07v13.09h-4.14v2.18h12.41v2.18h2.07v4.36h-2.07v-4.36h-24.83v4.36h-6.21v2.18h-10.34v6.55h2.07v2.18h-4.14v-2.18h-4.14v2.18h-2.07v8.73h2.07v6.55h6.21v2.18h4.14v2.18h10.34v-4.36h2.07v-4.36h-2.07v-4.36h2.07v2.18h2.07v4.36h4.14v6.55h-4.14v4.36h-12.41v2.18h2.07v2.18h53.79v-2.18h4.14v-8.73h2.07v-13.09h2.07v-2.18h-12.41v-2.18h18.62v-2.18h4.14v-4.36h2.07v-2.18h6.21v-8.73h-2.07Zm-57.93-34.91h14.48v2.18h-2.07v6.55h-14.48v-8.73h2.07Zm-18.62,17.45v2.18h-2.07v-2.18h2.07Zm-4.14,34.91h2.07v2.18h-4.14v-2.18h2.07Z"/><rect class="cls-2" x="93.1" y="69.82" width="2.07" height="2.18"/><polygon class="cls-2" points="97.24 67.64 97.24 65.45 97.24 63.27 95.17 63.27 95.17 65.45 95.17 67.64 95.17 69.82 97.24 69.82 97.24 67.64"/><rect class="cls-2" x="16.55" y="67.64" width="2.07" height="2.18"/><polygon class="cls-2" points="4.14 67.64 4.14 69.82 6.21 69.82 8.28 69.82 8.28 67.64 6.21 67.64 4.14 67.64"/><rect class="cls-2" x="93.1" y="61.09" width="2.07" height="2.18"/><polygon class="cls-2" points="16.55 61.09 14.48 61.09 12.41 61.09 12.41 63.27 12.41 65.45 14.48 65.45 14.48 63.27 16.55 63.27 16.55 61.09"/><rect class="cls-2" x="8.28" y="61.09" width="2.07" height="2.18"/><polygon class="cls-2" points="97.24 54.55 97.24 52.36 97.24 50.18 95.17 50.18 95.17 52.36 95.17 54.55 95.17 56.73 97.24 56.73 97.24 54.55"/><polygon class="cls-2" points="97.24 43.64 97.24 41.45 97.24 39.27 97.24 37.09 95.17 37.09 95.17 39.27 95.17 41.45 95.17 43.64 95.17 45.82 97.24 45.82 97.24 43.64"/><polygon class="cls-2" points="57.93 10.91 57.93 8.73 57.93 6.55 57.93 4.36 55.86 4.36 55.86 6.55 55.86 8.73 55.86 10.91 55.86 13.09 57.93 13.09 57.93 10.91"/><polygon class="cls-2" points="64.14 8.73 64.14 6.55 62.07 6.55 62.07 8.73 62.07 10.91 64.14 10.91 64.14 8.73"/><polygon class="cls-8" points="57.93 61.09 55.86 61.09 55.86 63.27 55.86 65.45 53.79 65.45 53.79 67.64 53.79 69.82 49.66 69.82 49.66 74.18 53.79 74.18 55.86 74.18 55.86 72 57.93 72 60 72 60 69.82 60 65.45 60 58.91 57.93 58.91 57.93 61.09"/><rect class="cls-5" x="55.86" y="45.82" width="12.41" height="2.18"/><rect class="cls-5" x="66.21" y="41.45" width="2.07" height="6.55"/><rect class="cls-5" x="35.17" y="39.27" width="8.28" height="2.18"/><rect class="cls-5" x="35.17" y="37.09" width="2.07" height="2.18"/></svg>